<?xml version="1.0" standalone="no"?>
<!DOCTYPE svg PUBLIC "-//W3C//DTD SVG 20010904//EN"
 "http://www.w3.org/TR/2001/REC-SVG-20010904/DTD/svg10.dtd">
<svg version="1.0" xmlns="http://www.w3.org/2000/svg"
 width="1430.000000pt" height="1430.000000pt" viewBox="0 0 1430.000000 1430.000000"
 preserveAspectRatio="xMidYMid meet">
<metadata>
Created by potrace 1.14, written by Peter Selinger 2001-2017
</metadata>
<g transform="translate(0.000000,1430.000000) scale(0.100000,-0.100000)"
fill="#000000" stroke="none">
<path d="M9606 12730 l-39 -5 0 -270 1 -270 -95 -275 c-95 -277 -176 -513
-283 -825 -32 -93 -106 -307 -163 -475 -58 -168 -119 -348 -137 -400 -17 -52
-36 -104 -40 -115 -5 -11 -41 -114 -80 -230 -39 -115 -98 -288 -131 -382 -32
-95 -86 -251 -118 -345 -33 -95 -103 -299 -156 -453 -53 -154 -127 -370 -165
-480 -38 -110 -80 -234 -95 -275 -14 -41 -28 -82 -30 -90 -3 -12 -84 -243
-108 -310 -3 -8 -24 -71 -48 -140 -50 -150 -190 -558 -248 -725 -23 -66 -44
-127 -46 -135 -3 -8 -85 -253 -183 -545 -98 -291 -195 -586 -216 -655 -38
-120 -56 -162 -56 -128 0 8 -12 51 -26 94 -14 44 -27 86 -29 94 -2 8 -9 29
-15 45 -6 17 -13 37 -15 45 -12 58 -1659 5003 -1748 5250 -3 8 -38 114 -77
235 -39 121 -74 227 -77 235 -3 8 -104 310 -225 670 -157 468 -221 671 -223
710 -1 30 -3 57 -4 60 -1 7 -621 7 -622 0 -1 -3 -2 -16 -3 -30 l-1 -25 -555
-5 -555 -5 0 -4322 0 -4323 552 0 553 0 0 2753 0 2752 237 -2 c131 -1 272 -3
314 -3 64 0 78 -3 84 -17 4 -10 54 -155 111 -323 56 -168 173 -512 259 -765
87 -253 170 -498 185 -545 16 -47 95 -278 175 -515 81 -236 189 -554 240 -705
51 -151 125 -369 165 -485 81 -238 84 -248 214 -630 52 -154 165 -487 251
-740 86 -253 180 -530 209 -615 l53 -155 519 -3 519 -2 17 47 c9 27 82 239
163 473 80 234 150 434 155 445 4 11 17 47 28 80 12 33 37 105 56 160 19 55
60 174 91 265 31 91 67 194 80 230 13 36 46 130 73 210 28 80 105 303 172 495
67 193 162 465 210 605 49 140 127 365 173 500 47 135 121 349 165 475 44 127
92 264 106 305 15 41 38 107 50 145 13 39 58 169 101 290 42 121 81 231 85
245 5 14 45 131 90 260 45 129 92 263 103 298 20 58 23 62 52 63 16 0 145 1
285 2 l255 2 0 -2797 0 -2798 552 0 553 0 0 4325 0 4325 -550 0 -550 0 -1 58
c-1 31 -1 65 0 75 1 9 -4 17 -11 18 -94 3 -503 3 -532 -1z"/>
</g>
</svg>
